<svg xmlns="http://www.w3.org/2000/svg" xmlns:xlink="http://www.w3.org/1999/xlink" width="500" zoomAndPan="magnify" viewBox="0 0 375 374.999991" height="500" preserveAspectRatio="xMidYMid meet" version="1.0"><defs><clipPath id="47f31b3cf9"><path d="M 9 19 L 366 19 L 366 355.476562 L 9 355.476562 Z M 9 19 " clip-rule="nonzero"/></clipPath></defs><g clip-path="url(#47f31b3cf9)"><path fill="#14b19d" d="M 337.644531 42.457031 C 254.210938 -29.972656 187.46875 94.675781 187.46875 94.675781 C 187.46875 94.675781 120.726562 -29.980469 37.292969 42.457031 C 37.292969 42.457031 -9.980469 89.199219 19.214844 152.367188 C 48.417969 215.539062 187.460938 355.769531 187.460938 355.769531 C 187.460938 355.769531 326.515625 215.539062 355.707031 152.367188 C 384.910156 89.199219 337.628906 42.457031 337.628906 42.457031 Z M 337.644531 42.457031 " fill-opacity="1" fill-rule="nonzero"/></g><path fill="#ffffff" d="M 138.621094 270.125 C 136.625 270.125 134.710938 269.175781 133.507812 267.535156 L 104.476562 228.015625 L 52.714844 228.015625 C 49.210938 228.015625 46.367188 225.171875 46.367188 221.667969 C 46.367188 218.164062 49.210938 215.320312 52.714844 215.320312 L 107.683594 215.320312 C 109.707031 215.320312 111.601562 216.285156 112.796875 217.910156 L 136.066406 249.589844 L 163.253906 154.417969 C 164.007812 151.785156 166.359375 149.929688 169.101562 149.820312 C 171.835938 149.71875 174.339844 151.371094 175.304688 153.933594 L 204.957031 232.839844 L 222.011719 190.660156 C 222.851562 188.578125 224.730469 187.097656 226.949219 186.769531 C 229.164062 186.429688 231.398438 187.292969 232.8125 189.035156 L 267.964844 232.179688 L 316.550781 232.179688 C 320.054688 232.179688 322.898438 235.023438 322.898438 238.527344 C 322.898438 242.03125 320.054688 244.875 316.550781 244.875 L 264.953125 244.875 C 263.046875 244.875 261.238281 244.019531 260.035156 242.539062 L 229.757812 205.382812 L 210.621094 252.699219 C 209.636719 255.125 207.285156 256.734375 204.652344 256.667969 C 202.035156 256.632812 199.710938 255 198.785156 252.554688 L 170.175781 176.417969 L 144.714844 265.546875 C 144.046875 267.875 142.117188 269.625 139.730469 270.050781 C 139.359375 270.117188 138.976562 270.152344 138.605469 270.152344 Z M 138.621094 270.125 " fill-opacity="1" fill-rule="nonzero"/></svg>